<svg width="479" height="479" viewBox="0 0 479 479" fill="none" xmlns="http://www.w3.org/2000/svg">
<g clip-path="url(#clip0_0_1)">
<path d="M239.16 478.32C371.244 478.32 478.32 371.244 478.32 239.16C478.32 107.076 371.244 0 239.16 0C107.076 0 0 107.076 0 239.16C0 371.244 107.076 478.32 239.16 478.32Z" fill="#5600AD"/>
<path d="M239.16 19.5C117.84 19.5 19.49 117.85 19.49 239.16C19.49 360.47 117.84 458.83 239.16 458.83C360.48 458.83 458.83 360.48 458.83 239.16C458.83 117.84 360.49 19.5 239.16 19.5ZM215.31 439.58C104.63 426.41 25.58 326 38.75 215.32C51.92 104.64 152.32 25.58 263.01 38.75C373.7 51.92 452.74 152.33 439.57 263C426.4 373.67 326 452.75 215.31 439.58Z" fill="url(#paint0_linear_0_1)"/>
<path d="M439.57 263C426.4 373.7 326 452.75 215.31 439.58C104.62 426.41 25.58 326 38.75 215.32C51.92 104.64 152.32 25.58 263.01 38.75C373.7 51.92 452.74 152.33 439.57 263Z" fill="#68E1FD"/>
<path d="M439.57 263C426.4 373.7 326 452.75 215.31 439.58C104.62 426.41 25.58 326 38.75 215.32C51.92 104.64 152.32 25.58 263.01 38.75C373.7 51.92 452.74 152.33 439.57 263Z" fill="url(#paint1_linear_0_1)"/>
<path d="M349.85 70.34C340.489 67.8382 330.962 66.0102 321.34 64.87C210.65 51.7 110.25 130.75 97.08 241.44C92.636 278.723 98.6794 316.506 114.531 350.542C130.382 384.579 155.413 413.519 186.81 434.11C91.41 408.62 26.74 316.24 38.75 215.32C51.92 104.63 152.32 25.58 263.01 38.75C294.017 42.3954 323.748 53.211 349.85 70.34Z" fill="url(#paint2_linear_0_1)"/>
<path d="M227.06 231.13V88.91C227.06 88.91 229.06 81.31 235.26 85.81L237.2 229.12L251.8 228.84C251.8 228.84 258.91 193.65 261.44 189.71C263.97 185.77 275.94 181.48 275.94 181.48C275.94 181.48 275.84 176.19 274.55 174.64C273.26 173.09 270.17 169.86 270.74 168.45C271.31 167.04 271.95 165.71 271.95 165.71C271.95 165.71 270.17 157.89 270.88 155.78C270.88 155.78 274.15 147.66 274.55 147.1C274.739 146.769 274.998 146.484 275.31 146.265C275.621 146.046 275.976 145.897 276.351 145.831C276.726 145.764 277.111 145.78 277.479 145.879C277.847 145.977 278.189 146.155 278.48 146.4C280.78 147.85 285.31 156.56 285.31 156.56C285.31 156.56 290.81 161.56 291.24 166.7C291.67 171.84 286.49 180.35 286.49 180.35L294.49 183.7C294.49 183.7 313.49 192.5 314.94 194.76C316.39 197.02 314.21 200.76 314.21 200.76L295.53 201.07L288.87 210.91L289.75 226.21L302.01 232.77C302.01 232.77 303.84 236.43 303.35 237.28C302.86 238.13 346.94 238.56 346.94 238.56V244.09C346.94 244.09 346.59 246.81 343.02 246.92C339.45 247.03 306.67 246.92 306.67 246.92L304.15 261.92L304.26 271.21L313.26 280.7C313.26 280.7 313.8 284.7 311.36 284.41C308.92 284.12 297.01 278.29 296.87 273.69V257.69L294.92 245.3L286.56 239.19L280.13 242.81L277.13 262.33L277.93 276.78V280.78L273.49 290.41C273.49 290.41 270.88 290.88 270.88 286C270.88 281.12 274.6 275.49 274.6 275.49C273.738 273.103 272.481 270.879 270.88 268.91C268.63 266.48 263.56 241.51 263.56 241.51L229.16 244L227.06 231.13Z" fill="url(#paint3_linear_0_1)"/>
<path d="M286.54 281.34C286.221 282.929 285.517 284.416 284.49 285.67C283.458 286.962 282.317 288.163 281.08 289.26C280.323 290.044 279.41 290.661 278.4 291.07C277.89 291.263 277.335 291.303 276.802 291.186C276.269 291.069 275.782 290.799 275.4 290.41C275.063 289.922 274.882 289.343 274.882 288.75C274.882 288.157 275.063 287.578 275.4 287.09C276.105 286.134 276.951 285.291 277.91 284.59C280.07 282.76 281.53 280.44 283.47 278.44C285.77 276.09 286.88 279.29 286.54 281.34ZM302.28 273.7C303.308 275.275 304.705 276.576 306.35 277.49C308.013 278.444 309.756 279.25 311.56 279.9C312.71 280.434 313.962 280.71 315.23 280.71C315.871 280.707 316.497 280.516 317.031 280.161C317.564 279.805 317.981 279.301 318.23 278.71C318.377 278.037 318.316 277.335 318.055 276.698C317.794 276.06 317.346 275.517 316.77 275.14C315.605 274.41 314.333 273.867 313 273.53C309.89 272.47 307.32 270.59 304.37 269.26C300.88 267.7 301.05 271.63 302.28 273.7ZM297.49 201.08C297.49 201.08 315.39 208.25 318.34 208.08C321.29 207.91 323.93 205.4 322.98 201.99C322.03 198.58 296.91 185.8 296.91 185.8L297.49 201.08Z" fill="#68E1FD"/>
<path d="M296.06 201.08C296.06 201.08 313.96 208.25 316.9 208.08C319.84 207.91 322.49 205.4 321.54 201.99C320.59 198.58 295.49 185.76 295.49 185.76L296.06 201.08Z" fill="url(#paint4_linear_0_1)"/>
<path d="M271.49 224.36C271.353 219.09 271.487 213.816 271.89 208.56C272.42 201.2 270.12 192.28 274.89 186.65C276.29 185 283.36 183.73 285.53 183.65C290.67 183.59 296.53 184.38 300.53 188.21C303.64 191.21 301.31 198.53 300.96 202.84C300.3 211.17 301.28 214.05 301.37 220.21C301.43 224.85 301.28 230.4 297.54 233.21C295.48 234.72 290.31 234.6 287.76 234.77C284.26 235.02 277.89 235.89 274.68 234.21C271.65 232.62 271.6 227.31 271.49 224.36Z" fill="#68E1FD"/>
<path d="M271.49 224.36C271.353 219.09 271.487 213.816 271.89 208.56C272.42 201.2 270.12 192.28 274.89 186.65C276.29 185 283.36 183.73 285.53 183.65C290.67 183.59 296.53 184.38 300.53 188.21C303.64 191.21 301.31 198.53 300.96 202.84C300.3 211.17 301.28 214.05 301.37 220.21C301.43 224.85 301.28 230.4 297.54 233.21C295.48 234.72 290.31 234.6 287.76 234.77C284.26 235.02 277.89 235.89 274.68 234.21C271.65 232.62 271.6 227.31 271.49 224.36Z" fill="url(#paint5_linear_0_1)"/>
<path opacity="0.31" d="M273.01 197.1L274.1 209.56C274.35 212.676 275.609 215.626 277.686 217.963C279.763 220.3 282.545 221.896 285.61 222.51C285.94 222.578 286.274 222.625 286.61 222.65C290.25 222.93 296.44 225.98 296.44 225.98L282.1 230.44L274.62 228.19L271.49 229L271.83 210.32L273.01 197.1Z" fill="url(#paint6_linear_0_1)"/>
<path d="M282.15 186.92C282.2 187.788 282.421 188.638 282.801 189.42C283.18 190.203 283.71 190.903 284.36 191.48C285.445 192.236 286.749 192.612 288.07 192.55C288.809 192.597 289.548 192.474 290.231 192.19C290.915 191.905 291.523 191.468 292.01 190.91C293.01 189.47 292.7 187.48 292.24 185.76C292.021 184.51 291.412 183.362 290.5 182.48C289.05 181.34 285.97 181.24 284.26 181.83C282.3 182.51 281.94 185.16 282.15 186.92Z" fill="#68E1FD"/>
<path d="M282.15 186.92C282.2 187.788 282.421 188.638 282.801 189.42C283.18 190.203 283.71 190.903 284.36 191.48C285.445 192.236 286.749 192.612 288.07 192.55C288.809 192.597 289.548 192.474 290.231 192.19C290.915 191.905 291.523 191.468 292.01 190.91C293.01 189.47 292.7 187.48 292.24 185.76C292.021 184.51 291.412 183.362 290.5 182.48C289.05 181.34 285.97 181.24 284.26 181.83C282.3 182.51 281.94 185.16 282.15 186.92Z" fill="url(#paint7_linear_0_1)"/>
<path d="M278.25 170.21C278.25 169.21 279.4 162.21 275.51 163.73C274.16 164.23 274.69 165.73 274.94 167.02C275.33 169.05 278.27 170.7 278.25 170.21Z" fill="url(#paint8_linear_0_1)"/>
<path d="M296.01 170.52C296.11 169.52 294.64 162.52 298.4 164.31C299.7 164.94 299.04 166.31 298.67 167.65C298.11 169.63 295.95 171 296.01 170.52Z" fill="url(#paint9_linear_0_1)"/>
<path d="M239.16 252.11C246.312 252.11 252.11 246.312 252.11 239.16C252.11 232.008 246.312 226.21 239.16 226.21C232.008 226.21 226.21 232.008 226.21 239.16C226.21 246.312 232.008 252.11 239.16 252.11Z" fill="#68E1FD"/>
<path d="M239.16 252.11C246.312 252.11 252.11 246.312 252.11 239.16C252.11 232.008 246.312 226.21 239.16 226.21C232.008 226.21 226.21 232.008 226.21 239.16C226.21 246.312 232.008 252.11 239.16 252.11Z" fill="url(#paint10_linear_0_1)"/>
<path d="M238.74 81.21C239.989 81.21 241.187 81.7062 242.07 82.5895C242.954 83.4728 243.45 84.6708 243.45 85.92V242.78H234V85.92C234 84.6708 234.496 83.4728 235.38 82.5895C236.263 81.7062 237.461 81.21 238.71 81.21H238.74Z" fill="#25233A"/>
<path d="M344.67 234.37H238.24C235.915 234.37 234.03 236.253 234.03 238.575C234.03 240.897 235.915 242.78 238.24 242.78H344.67C346.995 242.78 348.88 240.897 348.88 238.575C348.88 236.253 346.995 234.37 344.67 234.37Z" fill="#25233A"/>
<path d="M284.12 186.4C284.069 187.355 284.237 188.309 284.61 189.19C284.878 189.649 285.215 190.064 285.61 190.42C286.071 190.98 286.698 191.379 287.4 191.56C287.788 191.607 288.182 191.561 288.549 191.425C288.916 191.29 289.246 191.068 289.51 190.78C290.019 190.193 290.364 189.483 290.51 188.72C290.839 187.047 290.893 185.331 290.67 183.64L290.45 180.81C290.458 179.564 290.134 178.339 289.51 177.26C289.233 176.875 288.88 176.55 288.472 176.308C288.064 176.065 287.611 175.909 287.14 175.85C282.21 175.23 284.05 183.64 284.12 186.4Z" fill="url(#paint11_linear_0_1)"/>
<path d="M297.07 158.25C297.07 158.25 298.44 177.83 288.49 180.35C278.54 182.87 277.14 166.35 276.86 160.59C276.58 154.83 281.06 150 288.49 150.92C291.92 151.35 296.34 153.59 297.07 158.25Z" fill="url(#paint12_linear_0_1)"/>
<path d="M280.49 146.4C282.41 143.55 286.8 143.24 289.72 145.05C291.06 145.89 292.19 147.05 293.67 147.64C294.73 148.05 295.91 148.11 297 148.45C298.09 148.802 299.065 149.441 299.823 150.3C300.58 151.158 301.093 152.205 301.307 153.33C301.521 154.455 301.428 155.617 301.038 156.694C300.647 157.771 299.975 158.723 299.09 159.45C298 160.33 296.65 160.84 295.48 161.61C295.48 160.43 294.2 159.29 293.22 158.61C292.209 157.974 291.044 157.629 289.85 157.61L290.16 158.28C288.451 158.817 286.614 158.793 284.92 158.21C283.03 157.56 281.03 156.21 279.22 157.07C278.34 157.49 277.45 158.4 276.58 157.96C276.34 157.789 276.144 157.565 276.006 157.304C275.869 157.044 275.795 156.754 275.79 156.46C275.22 152.65 278.24 149.66 280.49 146.4Z" fill="#25233A"/>
<path d="M274.9 186.65C272.869 187.38 271.048 188.595 269.595 190.19C268.141 191.785 267.099 193.711 266.56 195.8C264.78 202.94 258.37 231.15 258.37 231.15C258.37 231.15 264.53 231.85 266.63 231.43L272.74 206.43C272.74 206.43 272.49 191.59 274.9 186.65Z" fill="#68E1FD"/>
<path d="M274.9 186.65C272.869 187.38 271.048 188.595 269.595 190.19C268.141 191.785 267.099 193.711 266.56 195.8C264.78 202.94 258.37 231.15 258.37 231.15C258.37 231.15 264.53 231.85 266.63 231.43L272.74 206.43C272.74 206.43 272.49 191.59 274.9 186.65Z" fill="url(#paint13_linear_0_1)"/>
<path d="M274.61 285.91C274.596 286.427 274.72 286.938 274.97 287.39C275.23 287.745 275.573 288.031 275.968 288.225C276.364 288.418 276.8 288.512 277.24 288.5C278.818 288.478 280.326 287.847 281.45 286.74C282.555 285.637 283.456 284.347 284.11 282.93C284.538 282.17 284.851 281.351 285.04 280.5C285.43 278.5 284.62 276.4 283.83 274.5C284.12 275.22 279.99 275.75 279.61 275.75C277.99 275.75 278.21 276.75 277.67 278.09C276.65 280.65 274.59 283 274.61 285.91Z" fill="#25233A"/>
<path d="M277.9 271L279.9 276.72C279.9 276.72 281.16 279.07 283.08 277.33C283.08 277.33 283.72 276.68 283.85 274.45L282.15 269.37L277.9 271Z" fill="url(#paint14_linear_0_1)"/>
<path d="M315.58 235.35C314.26 246.17 309.3 261.7 309.08 261.7C307.99 261.39 303.08 262.63 301.97 262.21C301.39 261.98 301.05 250.46 301.37 244.46C301.48 242.46 301.48 236.35 301.48 234.37L287.77 234.77L285.04 234.94C285.059 237.524 284.848 240.104 284.41 242.65C282.95 253.35 281.46 258.65 281.98 269.4C281.91 271.15 278.19 271.87 276.92 270.52C271.23 264.44 270.85 258.01 269.68 249.76C268.9 244.26 266.34 224.15 273.44 222.65C274.486 222.414 275.56 222.326 276.63 222.39C278.31 222.51 281.56 222.6 282.63 224.03C282.99 224.21 290.17 227.81 296.23 225.97L302.63 219.37C303.51 218.262 304.735 217.48 306.11 217.148C307.485 216.816 308.932 216.954 310.22 217.54C312.72 218.72 314.62 221.54 315.42 224.77C316.22 228 316.01 231.82 315.58 235.35Z" fill="#68E1FD"/>
<path d="M301.49 269.85C301.427 270.295 301.461 270.749 301.59 271.18C301.783 271.594 302.075 271.955 302.44 272.23C305.454 274.878 309.047 276.782 312.93 277.79C313.757 278.068 314.653 278.068 315.48 277.79C316.107 277.435 316.581 276.861 316.811 276.179C317.042 275.496 317.013 274.753 316.73 274.09C316.117 272.783 315.141 271.68 313.92 270.91C312.697 270.146 311.625 269.163 310.76 268.01C310.459 267.317 309.988 266.711 309.39 266.25C308.91 266.049 308.389 265.967 307.87 266.01C306.7 266.01 303.28 265.48 302.33 266.1C301.38 266.72 301.55 268.61 301.49 269.85Z" fill="#25233A"/>
<path d="M302.12 262.21L302.68 266.99C303.572 267.795 304.611 268.419 305.74 268.83C306.021 268.916 306.319 268.935 306.609 268.885C306.899 268.835 307.173 268.718 307.409 268.543C307.645 268.368 307.837 268.14 307.97 267.877C308.102 267.614 308.17 267.324 308.17 267.03V266.64L308.45 261.64L302.12 262.21Z" fill="url(#paint15_linear_0_1)"/>
<path d="M321.83 202L294.94 196.37L293.72 203.65C293.72 203.65 315.91 213.27 319.57 210.45C323.23 207.63 323.43 203.81 321.83 202Z" fill="#68E1FD"/>
<path d="M321.83 202L294.94 196.37L293.72 203.65C293.72 203.65 315.91 213.27 319.57 210.45C323.23 207.63 323.43 203.81 321.83 202Z" fill="url(#paint16_linear_0_1)"/>
<path d="M294.78 197.25C294.78 197.25 285.88 193.25 282.47 193.49C279.06 193.73 279.12 196.16 279.12 196.16V198.82C279.106 199.344 279.248 199.86 279.527 200.303C279.807 200.746 280.211 201.097 280.69 201.31C281.626 201.746 282.662 201.925 283.69 201.83C285.86 201.5 286.3 200.39 286.3 200.39C286.3 200.39 288.23 202.33 289.42 201.88C290.897 201.269 292.542 201.191 294.07 201.66L294.78 197.25Z" fill="url(#paint17_linear_0_1)"/>
<path d="M292.76 196.01L291.69 201.94L293.78 202.23L294.71 196.46L292.76 196.01Z" fill="#25233A"/>
<path d="M292.76 196.01L292.44 197.86L294.41 198.19L294.71 196.46L292.76 196.01Z" fill="#25233A"/>
<path d="M292.098 194.94L295.857 195.674L295.657 196.694L291.898 195.961L292.098 194.94Z" fill="#68E1FD"/>
<path d="M292.098 194.94L295.857 195.674L295.657 196.695L291.898 195.961L292.098 194.94Z" fill="url(#paint18_linear_0_1)"/>
<path d="M278.25 158.86C278.15 161.491 277.86 164.111 277.38 166.7C277.412 165.986 277.338 165.272 277.16 164.58C277.11 164.289 276.978 164.019 276.78 163.8C276.68 163.691 276.545 163.621 276.398 163.602C276.252 163.584 276.103 163.619 275.98 163.7C276.11 162.3 275.55 160.92 275.59 159.51C275.616 158.482 275.966 157.488 276.59 156.67C276.617 156.621 276.659 156.582 276.71 156.56C276.771 156.537 276.839 156.537 276.9 156.56C277.351 156.735 277.73 157.058 277.975 157.475C278.22 157.893 278.317 158.381 278.25 158.86ZM296.32 167.78L296.99 164.62C296.99 164.43 297.09 164.2 297.28 164.14C297.47 164.08 297.49 164.14 297.57 164.05C297.608 164.003 297.636 163.949 297.65 163.89L298.46 161.32C298.58 160.92 298.7 160.53 298.79 160.12C298.84 159.933 298.84 159.737 298.79 159.55C298.714 159.333 298.561 159.152 298.36 159.04C298.182 158.919 297.981 158.837 297.769 158.798C297.558 158.759 297.341 158.764 297.131 158.813C296.922 158.862 296.725 158.953 296.553 159.082C296.38 159.21 296.236 159.373 296.13 159.56C295.966 159.825 295.865 160.125 295.838 160.436C295.81 160.747 295.855 161.06 295.97 161.35C296.461 163.457 296.579 165.633 296.32 167.78Z" fill="#25233A"/>
<path d="M292.08 194.96L292.42 194.76L295.61 195.37L295.84 195.69L292.08 194.96Z" fill="#68E1FD"/>
<path d="M292.08 194.96L292.42 194.76L295.61 195.37L295.84 195.69L292.08 194.96Z" fill="url(#paint19_linear_0_1)"/>
<path d="M256.49 231.84C255.942 231.947 255.428 232.185 254.991 232.533C254.554 232.881 254.207 233.33 253.98 233.84C253.703 234.853 253.686 235.919 253.93 236.94C253.991 237.506 254.14 238.059 254.37 238.58C254.468 238.818 254.632 239.023 254.843 239.17C255.054 239.317 255.303 239.4 255.56 239.41C256.29 239.34 256.71 238.34 256.75 237.46C256.69 236.581 256.69 235.699 256.75 234.82C256.66 235.908 256.66 237.002 256.75 238.09C256.738 238.522 256.888 238.943 257.17 239.27C257.29 239.356 257.431 239.406 257.578 239.415C257.725 239.424 257.871 239.391 258 239.32C258.315 239.128 258.581 238.866 258.777 238.553C258.973 238.241 259.094 237.887 259.13 237.52C259.225 236.741 259.205 235.953 259.07 235.18C259.199 235.737 259.222 236.314 259.14 236.88C259.053 237.445 259.111 238.024 259.31 238.56C259.55 239.06 260.14 239.36 260.52 239.02C260.766 238.743 260.907 238.39 260.92 238.02C261.07 237.091 261.12 236.149 261.07 235.21C260.916 236.169 260.964 237.15 261.21 238.09C261.53 238.98 262.38 239.69 263.14 239.36C263.448 239.16 263.701 238.885 263.875 238.562C264.05 238.239 264.141 237.877 264.14 237.51C264.22 236.74 264.14 235.96 264.14 235.19C264.139 235.046 264.167 234.904 264.22 234.77C264.43 234.37 264.93 234.56 265.32 234.51C265.71 234.46 266.23 233.84 266.32 233.22C266.388 232.587 266.341 231.946 266.18 231.33C264.404 231.372 262.627 231.298 260.86 231.11C259.372 231.094 257.892 231.341 256.49 231.84Z" fill="url(#paint20_linear_0_1)"/>
<path d="M315.73 235.35C314.41 246.17 309.45 261.7 309.23 261.7C308.178 261.638 307.122 261.715 306.09 261.93C304.45 262.17 302.7 262.44 302.09 262.21C302.04 262.21 302 262.1 301.95 261.93C301.48 260.19 301.22 250.69 301.46 245.07V244.46C301.57 242.46 301.56 236.35 301.56 234.37L287.86 234.77L285.13 234.94C285.149 237.524 284.938 240.104 284.5 242.65C283.04 253.35 281.55 258.65 282.07 269.4C282.02 270.53 280.46 271.23 279.02 271.22C278.287 271.261 277.568 271.009 277.02 270.52C271.33 264.44 270.95 258.01 269.78 249.76C269 244.26 266.44 224.15 273.54 222.65C274.586 222.414 275.66 222.326 276.73 222.39C278.41 222.51 281.66 222.6 282.73 224.03C283.09 224.21 290.27 227.81 296.33 225.97L302.73 219.37C303.61 218.262 304.834 217.48 306.21 217.148C307.585 216.816 309.032 216.954 310.32 217.54C312.82 218.72 314.72 221.54 315.52 224.77C316.32 228 316.16 231.82 315.73 235.35Z" fill="url(#paint21_linear_0_1)"/>
<path d="M279.08 271.22C278.347 271.261 277.628 271.009 277.08 270.52C271.39 264.44 271.01 258.01 269.84 249.76C269.06 244.26 266.5 224.15 273.6 222.65C271.258 227.319 270.516 232.628 271.49 237.76C273.16 246 279.08 271.22 279.08 271.22Z" fill="url(#paint22_linear_0_1)"/>
<path d="M306.09 261.93C304.45 262.17 302.7 262.44 302.09 262.21C302.04 262.21 302 262.1 301.95 261.93C301.48 260.19 301.22 250.69 301.46 245.07V244.46C301.57 242.46 301.56 236.35 301.56 234.37L285.13 234.94L284.46 229.22C284.46 229.22 293.56 231.47 296.28 231.13C299 230.79 302.08 228.13 302.08 228.13C302.08 228.13 305.86 222.88 306.98 228.13C308.1 233 306.31 258.83 306.09 261.93Z" fill="url(#paint23_linear_0_1)"/>
<path d="M243.45 422.57C243.45 419.969 241.341 417.86 238.74 417.86C236.139 417.86 234.03 419.969 234.03 422.57V429.2C234.03 431.801 236.139 433.91 238.74 433.91C241.341 433.91 243.45 431.801 243.45 429.2V422.57Z" fill="white"/>
<path d="M243.45 50.53C243.45 47.9287 241.341 45.82 238.74 45.82C236.139 45.82 234.03 47.9287 234.03 50.53V57.16C234.03 59.7613 236.139 61.87 238.74 61.87C241.341 61.87 243.45 59.7613 243.45 57.16V50.53Z" fill="white"/>
<path d="M243.45 422.57C243.45 419.969 241.341 417.86 238.74 417.86C236.139 417.86 234.03 419.969 234.03 422.57V429.2C234.03 431.801 236.139 433.91 238.74 433.91C241.341 433.91 243.45 431.801 243.45 429.2V422.57Z" fill="white"/>
<path d="M108.19 102.661C106.351 100.821 103.368 100.821 101.529 102.661C99.6897 104.5 99.6897 107.482 101.529 109.322L106.217 114.01C108.057 115.849 111.039 115.849 112.878 114.01C114.717 112.17 114.717 109.188 112.878 107.349L108.19 102.661Z" fill="white"/>
<path d="M371.267 365.73C369.427 363.891 366.445 363.891 364.606 365.73C362.766 367.57 362.766 370.552 364.606 372.391L369.294 377.079C371.133 378.919 374.115 378.919 375.955 377.079C377.794 375.24 377.794 372.258 375.955 370.419L371.267 365.73Z" fill="white"/>
<path d="M49.4 235.16C46.7987 235.16 44.69 237.269 44.69 239.87C44.69 242.471 46.7987 244.58 49.4 244.58H56.03C58.6313 244.58 60.74 242.471 60.74 239.87C60.74 237.269 58.6313 235.16 56.03 235.16H49.4Z" fill="white"/>
<path d="M421.44 235.15C418.839 235.15 416.73 237.259 416.73 239.86C416.73 242.461 418.839 244.57 421.44 244.57H428.07C430.671 244.57 432.78 242.461 432.78 239.86C432.78 237.259 430.671 235.15 428.07 235.15H421.44Z" fill="white"/>
<path d="M101.53 370.422C99.6907 372.261 99.6907 375.244 101.53 377.083C103.369 378.922 106.352 378.922 108.191 377.083L112.879 372.395C114.718 370.555 114.718 367.573 112.879 365.734C111.04 363.895 108.058 363.895 106.218 365.734L101.53 370.422Z" fill="white"/>
<path d="M364.603 107.341C362.763 109.18 362.763 112.163 364.603 114.002C366.442 115.841 369.424 115.841 371.264 114.002L375.952 109.314C377.791 107.475 377.791 104.492 375.952 102.653C374.112 100.814 371.13 100.814 369.291 102.653L364.603 107.341Z" fill="white"/>
</g>
<defs>
<linearGradient id="paint0_linear_0_1" x1="151.86" y1="-291.99" x2="292.08" y2="561.14" gradientUnits="userSpaceOnUse">
<stop stop-opacity="0"/>
<stop offset="0.88" stop-opacity="0.8"/>
<stop offset="0.97"/>
</linearGradient>
<linearGradient id="paint1_linear_0_1" x1="257.14" y1="-244.6" x2="209.84" y2="1028.06" gradientUnits="userSpaceOnUse">
<stop stop-color="#9333EA"/>
<stop offset="0.88" stop-opacity="0.8"/>
<stop offset="0.97"/>
</linearGradient>
<linearGradient id="paint2_linear_0_1" x1="-42.89" y1="88.5" x2="1045.05" y2="669.64" gradientUnits="userSpaceOnUse">
<stop stop-color="white" stop-opacity="0"/>
<stop offset="0.84" stop-color="white" stop-opacity="0.84"/>
<stop offset="0.97" stop-color="white"/>
</linearGradient>
<linearGradient id="paint3_linear_0_1" x1="299.38" y1="-166.72" x2="275.43" y2="477.54" gradientUnits="userSpaceOnUse">
<stop stop-opacity="0"/>
<stop offset="0.88" stop-opacity="0.8"/>
<stop offset="0.97"/>
</linearGradient>
<linearGradient id="paint4_linear_0_1" x1="309.94" y1="192.58" x2="303.18" y2="205.34" gradientUnits="userSpaceOnUse">
<stop stop-opacity="0"/>
<stop offset="0.88" stop-opacity="0.8"/>
<stop offset="0.97"/>
</linearGradient>
<linearGradient id="paint5_linear_0_1" x1="288.12" y1="178.69" x2="284.18" y2="259.22" gradientUnits="userSpaceOnUse">
<stop stop-opacity="0"/>
<stop offset="0.5" stop-opacity="0.19"/>
<stop offset="0.55" stop-opacity="0.24"/>
<stop offset="0.97"/>
</linearGradient>
<linearGradient id="paint6_linear_0_1" x1="286.39" y1="156.67" x2="282.53" y2="260.64" gradientUnits="userSpaceOnUse">
<stop stop-opacity="0"/>
<stop offset="0.88" stop-opacity="0.8"/>
<stop offset="0.97"/>
</linearGradient>
<linearGradient id="paint7_linear_0_1" x1="288.47" y1="176.38" x2="285.79" y2="203.41" gradientUnits="userSpaceOnUse">
<stop stop-opacity="0"/>
<stop offset="0.5" stop-opacity="0.19"/>
<stop offset="0.55" stop-opacity="0.24"/>
<stop offset="0.97"/>
</linearGradient>
<linearGradient id="paint8_linear_0_1" x1="274.62" y1="166.91" x2="278.4" y2="166.91" gradientUnits="userSpaceOnUse">
<stop stop-color="#ECC4D7"/>
<stop offset="0.42" stop-color="#EFD4D1"/>
<stop offset="1" stop-color="#F2EAC9"/>
</linearGradient>
<linearGradient id="paint9_linear_0_1" x1="295.81" y1="167.32" x2="299.17" y2="167.32" gradientUnits="userSpaceOnUse">
<stop stop-color="#ECC4D7"/>
<stop offset="0.42" stop-color="#EFD4D1"/>
<stop offset="1" stop-color="#F2EAC9"/>
</linearGradient>
<linearGradient id="paint10_linear_0_1" x1="238.65" y1="186.32" x2="239.49" y2="272.48" gradientUnits="userSpaceOnUse">
<stop stop-opacity="0"/>
<stop offset="0.88" stop-opacity="0.8"/>
<stop offset="0.97"/>
</linearGradient>
<linearGradient id="paint11_linear_0_1" x1="287.26" y1="183.54" x2="287.86" y2="191" gradientUnits="userSpaceOnUse">
<stop stop-color="#ECC4D7"/>
<stop offset="0.42" stop-color="#EFD4D1"/>
<stop offset="1" stop-color="#F2EAC9"/>
</linearGradient>
<linearGradient id="paint12_linear_0_1" x1="286.88" y1="151.01" x2="287.31" y2="187.33" gradientUnits="userSpaceOnUse">
<stop stop-color="#ECC4D7"/>
<stop offset="0.42" stop-color="#EFD4D1"/>
<stop offset="1" stop-color="#F2EAC9"/>
</linearGradient>
<linearGradient id="paint13_linear_0_1" x1="263.27" y1="208.06" x2="277.54" y2="211.63" gradientUnits="userSpaceOnUse">
<stop stop-opacity="0"/>
<stop offset="0.5" stop-opacity="0.19"/>
<stop offset="0.55" stop-opacity="0.24"/>
<stop offset="0.97"/>
</linearGradient>
<linearGradient id="paint14_linear_0_1" x1="281.39" y1="258.68" x2="280.38" y2="285.85" gradientUnits="userSpaceOnUse">
<stop stop-color="#ECC4D7"/>
<stop offset="0.42" stop-color="#EFD4D1"/>
<stop offset="1" stop-color="#F2EAC9"/>
</linearGradient>
<linearGradient id="paint15_linear_0_1" x1="305.64" y1="252.45" x2="304.78" y2="275.58" gradientUnits="userSpaceOnUse">
<stop stop-color="#ECC4D7"/>
<stop offset="0.42" stop-color="#EFD4D1"/>
<stop offset="1" stop-color="#F2EAC9"/>
</linearGradient>
<linearGradient id="paint16_linear_0_1" x1="309.34" y1="199.05" x2="306.15" y2="211.25" gradientUnits="userSpaceOnUse">
<stop stop-opacity="0"/>
<stop offset="0.88" stop-opacity="0.8"/>
<stop offset="0.97"/>
</linearGradient>
<linearGradient id="paint17_linear_0_1" x1="296.33" y1="199.59" x2="283.28" y2="197.71" gradientUnits="userSpaceOnUse">
<stop stop-color="#ECC4D7"/>
<stop offset="0.42" stop-color="#EFD4D1"/>
<stop offset="1" stop-color="#F2EAC9"/>
</linearGradient>
<linearGradient id="paint18_linear_0_1" x1="293.895" y1="194.779" x2="293.825" y2="196.839" gradientUnits="userSpaceOnUse">
<stop stop-opacity="0"/>
<stop offset="0.88" stop-opacity="0.8"/>
<stop offset="0.97"/>
</linearGradient>
<linearGradient id="paint19_linear_0_1" x1="294.06" y1="193.89" x2="293.9" y2="196.21" gradientUnits="userSpaceOnUse">
<stop stop-color="white" stop-opacity="0"/>
<stop offset="0.84" stop-color="white" stop-opacity="0.84"/>
<stop offset="0.97" stop-color="white"/>
</linearGradient>
<linearGradient id="paint20_linear_0_1" x1="253.76" y1="235.31" x2="266.34" y2="235.31" gradientUnits="userSpaceOnUse">
<stop stop-color="#ECC4D7"/>
<stop offset="0.42" stop-color="#EFD4D1"/>
<stop offset="1" stop-color="#F2EAC9"/>
</linearGradient>
<linearGradient id="paint21_linear_0_1" x1="291.29" y1="213.3" x2="295.42" y2="285.75" gradientUnits="userSpaceOnUse">
<stop stop-color="white" stop-opacity="0"/>
<stop offset="0.84" stop-color="white" stop-opacity="0.84"/>
<stop offset="0.97" stop-color="white"/>
</linearGradient>
<linearGradient id="paint22_linear_0_1" x1="281.69" y1="246.73" x2="259.17" y2="247.58" gradientUnits="userSpaceOnUse">
<stop stop-opacity="0"/>
<stop offset="0.88" stop-opacity="0.8"/>
<stop offset="0.97"/>
</linearGradient>
<linearGradient id="paint23_linear_0_1" x1="314.05" y1="212.09" x2="279.32" y2="274.12" gradientUnits="userSpaceOnUse">
<stop stop-opacity="0"/>
<stop offset="0.91" stop-opacity="0.8"/>
<stop offset="1"/>
</linearGradient>
<clipPath id="clip0_0_1">
<rect width="478.33" height="478.33" fill="white"/>
</clipPath>
</defs>
</svg>
